<?xml version="1.0" encoding="UTF-8"?>
<svg id="Camada_1" data-name="Camada 1" xmlns="http://www.w3.org/2000/svg" width="1920" height="1080" xmlns:xlink="http://www.w3.org/1999/xlink" viewBox="0 0 1920 1080">
  <defs>
    <style>
      .cls-1 {
        fill: url(#Novo_padrão_2);
      }

      .cls-1, .cls-2, .cls-3 {
        stroke-width: 0px;
      }

      .cls-2 {
        fill: none;
      }

      .cls-3 {
        fill: #ec6c1a;
      }
    </style>
    <pattern id="Novo_padrão_2" data-name="Novo padrão 2" x="0" y="0" width="360" height="400" patternTransform="translate(-359.59 4497.8) rotate(14) scale(1.35)" patternUnits="userSpaceOnUse" viewBox="0 0 360 400">
      <g>
        <rect class="cls-2" width="360" height="400"/>
        <g>
          <path class="cls-3" d="M243.95,395.56c7.85-4.56,17.63-7.31,26.64-8.08,9.41-.81,17.59,1.7,25.37,6.88,4.34,2.89,8.53,5.93,11.74,9.85,2.87-15.92-3.71-29.53-14.21-42.1.14,1.12.57,2.16.86,3.24,1.53,5.69,1.99,11.39-1.24,16.66-.83,1.35-2.59,2.8-4.01,2.89-.99.06-2.74-1.98-3.06-3.33-1.05-4.43-2.01-8.95-2.27-13.48-.5-8.85-1.46-17.53-5.45-25.6-3.99-8.06-9.64-14.5-17.84-18.63,5.46,7.9,5.76,16.53,2.31,24.79-2.13,5.11-6.24,9.49-9.88,13.86-3.34,4.01-7.34,7.46-10.89,11.32,0,0-14.92,12.89-12.74,38.81,2.17-7.03,8.44-13.44,14.67-17.05Z"/>
          <path class="cls-3" d="M311.99,412.12c-3.32-8.52-8.67-15.11-16.04-19.75-7.37-4.64-15.79-6.97-25.25-6.97-8.27,0-15.87,1.94-22.82,5.82-6.95,3.88-12.45,9.27-16.49,16.17-4.05,6.9-6.07,14.7-6.07,23.39s2.03,16.49,6.07,23.4c4.04,6.9,9.52,12.29,16.43,16.17,6.9,3.88,14.53,5.82,22.88,5.82,7.75,0,14.81-1.73,21.16-5.18,6.35-3.45,11.5-8.07,15.47-13.87,3.96-5.79,6.41-12.14,7.35-19.05v-11.38h-48.96v11.63h33.37c-1.11,7.59-4.14,13.6-9.08,18.03-4.95,4.43-11.38,6.65-19.31,6.65-5.88,0-11.12-1.32-15.72-3.96-4.6-2.64-8.21-6.41-10.8-11.32-2.6-4.9-3.9-10.55-3.9-16.94s1.3-12.02,3.9-16.87,6.2-8.61,10.8-11.25c4.6-2.64,9.84-3.96,15.72-3.96,5.37,0,10.1,1.13,14.19,3.39,4.09,2.26,7.29,5.61,9.59,10.04h17.51Z"/>
        </g>
        <g>
          <path class="cls-3" d="M63.95,395.56c7.85-4.56,17.63-7.31,26.64-8.08,9.41-.81,17.59,1.7,25.37,6.88,4.34,2.89,8.53,5.93,11.74,9.85,2.87-15.92-3.71-29.53-14.21-42.1.14,1.12.57,2.16.86,3.24,1.53,5.69,1.99,11.39-1.24,16.66-.83,1.35-2.59,2.8-4.01,2.89-.99.06-2.74-1.98-3.06-3.33-1.05-4.43-2.01-8.95-2.27-13.48-.5-8.85-1.46-17.53-5.45-25.6-3.99-8.06-9.64-14.5-17.84-18.63,5.46,7.9,5.76,16.53,2.31,24.79-2.13,5.11-6.24,9.49-9.88,13.86-3.34,4.01-7.34,7.46-10.89,11.32,0,0-14.92,12.89-12.74,38.81,2.17-7.03,8.44-13.44,14.67-17.05Z"/>
          <path class="cls-3" d="M131.99,412.12c-3.32-8.52-8.67-15.11-16.04-19.75-7.37-4.64-15.79-6.97-25.25-6.97-8.27,0-15.87,1.94-22.82,5.82-6.95,3.88-12.45,9.27-16.49,16.17-4.05,6.9-6.07,14.7-6.07,23.39s2.03,16.49,6.07,23.4c4.04,6.9,9.52,12.29,16.43,16.17,6.9,3.88,14.53,5.82,22.88,5.82,7.75,0,14.81-1.73,21.16-5.18,6.35-3.45,11.5-8.07,15.47-13.87,3.96-5.79,6.41-12.14,7.35-19.05v-11.38h-48.96v11.63h33.37c-1.11,7.59-4.14,13.6-9.08,18.03-4.95,4.43-11.38,6.65-19.31,6.65-5.88,0-11.12-1.32-15.72-3.96-4.6-2.64-8.21-6.41-10.8-11.32-2.6-4.9-3.9-10.55-3.9-16.94s1.3-12.02,3.9-16.87c2.6-4.86,6.2-8.61,10.8-11.25,4.6-2.64,9.84-3.96,15.72-3.96,5.37,0,10.1,1.13,14.19,3.39,4.09,2.26,7.29,5.61,9.59,10.04h17.51Z"/>
        </g>
        <g>
          <path class="cls-3" d="M333.95,195.56c7.85-4.56,17.63-7.31,26.64-8.08,9.41-.81,17.59,1.7,25.37,6.88,4.34,2.89,8.53,5.93,11.74,9.85,2.87-15.92-3.71-29.53-14.21-42.1.14,1.12.57,2.16.86,3.24,1.53,5.69,1.99,11.39-1.24,16.66-.83,1.35-2.59,2.8-4.01,2.89-.99.06-2.74-1.98-3.06-3.33-1.05-4.43-2.01-8.95-2.27-13.48-.5-8.85-1.46-17.53-5.45-25.6-3.99-8.06-9.64-14.5-17.84-18.63,5.46,7.9,5.76,16.53,2.31,24.79-2.13,5.11-6.24,9.49-9.88,13.86-3.34,4.01-7.34,7.46-10.89,11.32,0,0-14.92,12.89-12.74,38.81,2.17-7.03,8.44-13.44,14.67-17.05Z"/>
          <path class="cls-3" d="M401.99,212.12c-3.32-8.52-8.67-15.11-16.04-19.75-7.37-4.64-15.79-6.97-25.25-6.97-8.27,0-15.87,1.94-22.82,5.82-6.95,3.88-12.45,9.27-16.49,16.17-4.05,6.9-6.07,14.7-6.07,23.39s2.03,16.49,6.07,23.4c4.04,6.9,9.52,12.29,16.43,16.17,6.9,3.88,14.53,5.82,22.88,5.82,7.75,0,14.81-1.73,21.16-5.18,6.35-3.45,11.5-8.07,15.47-13.87,3.96-5.79,6.41-12.14,7.35-19.05v-11.38h-48.96v11.63h33.37c-1.11,7.59-4.14,13.6-9.08,18.03-4.95,4.43-11.38,6.65-19.31,6.65-5.88,0-11.12-1.32-15.72-3.96-4.6-2.64-8.21-6.41-10.8-11.32-2.6-4.9-3.9-10.55-3.9-16.94s1.3-12.02,3.9-16.87,6.2-8.61,10.8-11.25c4.6-2.64,9.84-3.96,15.72-3.96,5.37,0,10.1,1.13,14.19,3.39,4.09,2.26,7.29,5.61,9.59,10.04h17.51Z"/>
        </g>
        <g>
          <path class="cls-3" d="M153.95,195.56c7.85-4.56,17.63-7.31,26.64-8.08,9.41-.81,17.59,1.7,25.37,6.88,4.34,2.89,8.53,5.93,11.74,9.85,2.87-15.92-3.71-29.53-14.21-42.1.14,1.12.57,2.16.86,3.24,1.53,5.69,1.99,11.39-1.24,16.66-.83,1.35-2.59,2.8-4.01,2.89-.99.06-2.74-1.98-3.06-3.33-1.05-4.43-2.01-8.95-2.27-13.48-.5-8.85-1.46-17.53-5.45-25.6-3.99-8.06-9.64-14.5-17.84-18.63,5.46,7.9,5.76,16.53,2.31,24.79-2.13,5.11-6.24,9.49-9.88,13.86-3.34,4.01-7.34,7.46-10.89,11.32,0,0-14.92,12.89-12.74,38.81,2.17-7.03,8.44-13.44,14.67-17.05Z"/>
          <path class="cls-3" d="M221.99,212.12c-3.32-8.52-8.67-15.11-16.04-19.75-7.37-4.64-15.79-6.97-25.25-6.97-8.27,0-15.87,1.94-22.82,5.82-6.95,3.88-12.45,9.27-16.49,16.17-4.05,6.9-6.07,14.7-6.07,23.39s2.03,16.49,6.07,23.4c4.04,6.9,9.52,12.29,16.43,16.17,6.9,3.88,14.53,5.82,22.88,5.82,7.75,0,14.81-1.73,21.16-5.18,6.35-3.45,11.5-8.07,15.47-13.87,3.96-5.79,6.41-12.14,7.35-19.05v-11.38h-48.96v11.63h33.37c-1.11,7.59-4.14,13.6-9.08,18.03-4.95,4.43-11.38,6.65-19.31,6.65-5.88,0-11.12-1.32-15.72-3.96-4.6-2.64-8.21-6.41-10.8-11.32-2.6-4.9-3.9-10.55-3.9-16.94s1.3-12.02,3.9-16.87,6.2-8.61,10.8-11.25c4.6-2.64,9.84-3.96,15.72-3.96,5.37,0,10.1,1.13,14.19,3.39,4.09,2.26,7.29,5.61,9.59,10.04h17.51Z"/>
        </g>
        <g>
          <path class="cls-3" d="M-26.05,195.56c7.85-4.56,17.63-7.31,26.64-8.08,9.41-.81,17.59,1.7,25.37,6.88,4.34,2.89,8.53,5.93,11.74,9.85,2.87-15.92-3.71-29.53-14.21-42.1.14,1.12.57,2.16.86,3.24,1.53,5.69,1.99,11.39-1.24,16.66-.83,1.35-2.59,2.8-4.01,2.89-.99.06-2.74-1.98-3.06-3.33-1.05-4.43-2.01-8.95-2.27-13.48-.5-8.85-1.46-17.53-5.45-25.6-3.99-8.06-9.64-14.5-17.84-18.63,5.46,7.9,5.76,16.53,2.31,24.79-2.13,5.11-6.24,9.49-9.88,13.86-3.34,4.01-7.34,7.46-10.89,11.32,0,0-14.92,12.89-12.74,38.81,2.17-7.03,8.44-13.44,14.67-17.05Z"/>
          <path class="cls-3" d="M41.99,212.12c-3.32-8.52-8.67-15.11-16.04-19.75-7.37-4.64-15.79-6.97-25.25-6.97-8.27,0-15.87,1.94-22.82,5.82-6.95,3.88-12.45,9.27-16.49,16.17-4.05,6.9-6.07,14.7-6.07,23.39s2.03,16.49,6.07,23.4c4.04,6.9,9.52,12.29,16.43,16.17,6.9,3.88,14.53,5.82,22.88,5.82,7.75,0,14.81-1.73,21.16-5.18,6.35-3.45,11.5-8.07,15.47-13.87,3.96-5.79,6.41-12.14,7.35-19.05v-11.38H-4.28v11.63H29.08c-1.11,7.59-4.14,13.6-9.08,18.03-4.95,4.43-11.38,6.65-19.31,6.65-5.88,0-11.12-1.32-15.72-3.96-4.6-2.64-8.21-6.41-10.8-11.32-2.6-4.9-3.9-10.55-3.9-16.94s1.3-12.02,3.9-16.87c2.6-4.86,6.2-8.61,10.8-11.25,4.6-2.64,9.84-3.96,15.72-3.96,5.37,0,10.1,1.13,14.19,3.39,4.09,2.26,7.29,5.61,9.59,10.04h17.51Z"/>
        </g>
        <g>
          <path class="cls-3" d="M243.95-4.44c7.85-4.56,17.63-7.31,26.64-8.08,9.41-.81,17.59,1.7,25.37,6.88,4.34,2.89,8.53,5.93,11.74,9.85,2.87-15.92-3.71-29.53-14.21-42.1.14,1.12.57,2.16.86,3.24,1.53,5.69,1.99,11.39-1.24,16.66-.83,1.35-2.59,2.8-4.01,2.89-.99.06-2.74-1.98-3.06-3.33-1.05-4.43-2.01-8.95-2.27-13.48-.5-8.85-1.46-17.53-5.45-25.6-3.99-8.06-9.64-14.5-17.84-18.63,5.46,7.9,5.76,16.53,2.31,24.79-2.13,5.11-6.24,9.49-9.88,13.86-3.34,4.01-7.34,7.46-10.89,11.32,0,0-14.92,12.89-12.74,38.81,2.17-7.03,8.44-13.44,14.67-17.05Z"/>
          <path class="cls-3" d="M311.99,12.12c-3.32-8.52-8.67-15.11-16.04-19.75-7.37-4.64-15.79-6.97-25.25-6.97-8.27,0-15.87,1.94-22.82,5.82-6.95,3.88-12.45,9.27-16.49,16.17-4.05,6.9-6.07,14.7-6.07,23.39s2.03,16.49,6.07,23.4c4.04,6.9,9.52,12.29,16.43,16.17,6.9,3.88,14.53,5.82,22.88,5.82,7.75,0,14.81-1.73,21.16-5.18,6.35-3.45,11.5-8.07,15.47-13.87,3.96-5.79,6.41-12.14,7.35-19.05v-11.38h-48.96v11.63h33.37c-1.11,7.59-4.14,13.6-9.08,18.03-4.95,4.43-11.38,6.65-19.31,6.65-5.88,0-11.12-1.32-15.72-3.96-4.6-2.64-8.21-6.41-10.8-11.32-2.6-4.9-3.9-10.55-3.9-16.94s1.3-12.02,3.9-16.87,6.2-8.61,10.8-11.25c4.6-2.64,9.84-3.96,15.72-3.96,5.37,0,10.1,1.13,14.19,3.39,4.09,2.26,7.29,5.61,9.59,10.04h17.51Z"/>
        </g>
        <g>
          <path class="cls-3" d="M63.95-4.44c7.85-4.56,17.63-7.31,26.64-8.08,9.41-.81,17.59,1.7,25.37,6.88,4.34,2.89,8.53,5.93,11.74,9.85,2.87-15.92-3.71-29.53-14.21-42.1.14,1.12.57,2.16.86,3.24,1.53,5.69,1.99,11.39-1.24,16.66-.83,1.35-2.59,2.8-4.01,2.89-.99.06-2.74-1.98-3.06-3.33-1.05-4.43-2.01-8.95-2.27-13.48-.5-8.85-1.46-17.53-5.45-25.6-3.99-8.06-9.64-14.5-17.84-18.63,5.46,7.9,5.76,16.53,2.31,24.79-2.13,5.11-6.24,9.49-9.88,13.86-3.34,4.01-7.34,7.46-10.89,11.32,0,0-14.92,12.89-12.74,38.81,2.17-7.03,8.44-13.44,14.67-17.05Z"/>
          <path class="cls-3" d="M131.99,12.12c-3.32-8.52-8.67-15.11-16.04-19.75-7.37-4.64-15.79-6.97-25.25-6.97-8.27,0-15.87,1.94-22.82,5.82-6.95,3.88-12.45,9.27-16.49,16.17-4.05,6.9-6.07,14.7-6.07,23.39s2.03,16.49,6.07,23.4c4.04,6.9,9.52,12.29,16.43,16.17,6.9,3.88,14.53,5.82,22.88,5.82,7.75,0,14.81-1.73,21.16-5.18,6.35-3.45,11.5-8.07,15.47-13.87,3.96-5.79,6.41-12.14,7.35-19.05v-11.38h-48.96v11.63h33.37c-1.11,7.59-4.14,13.6-9.08,18.03-4.95,4.43-11.38,6.65-19.31,6.65-5.88,0-11.12-1.32-15.72-3.96-4.6-2.64-8.21-6.41-10.8-11.32-2.6-4.9-3.9-10.55-3.9-16.94s1.3-12.02,3.9-16.87c2.6-4.86,6.2-8.61,10.8-11.25,4.6-2.64,9.84-3.96,15.72-3.96,5.37,0,10.1,1.13,14.19,3.39,4.09,2.26,7.29,5.61,9.59,10.04h17.51Z"/>
        </g>
      </g>
    </pattern>
  </defs>
  <rect class="cls-1" x="4.33" y="3.97" width="1912.32" height="1077.12"/>
</svg>